<?xml version="1.0" encoding="UTF-8"?>
<svg version="1.1" xmlns="http://www.w3.org/2000/svg" width="1200" height="1200">
<path d="M0 0 C1.22121581 -0.00350607 2.44243162 -0.00701215 3.70065397 -0.01062447 C7.06062732 -0.01827202 10.42037904 -0.01711408 13.78034255 -0.01206893 C17.44722926 -0.00877818 21.11409368 -0.01710474 24.78097308 -0.02388728 C31.1981637 -0.03415882 37.61532417 -0.03703603 44.0325222 -0.03497505 C53.57583526 -0.03191761 63.1191151 -0.04026554 72.66242169 -0.0507243 C90.70245231 -0.07004308 108.74247154 -0.07569176 126.78251128 -0.07683842 C140.71885467 -0.07775844 154.65519362 -0.08187998 168.59153557 -0.08823967 C172.60699387 -0.09003484 176.62245218 -0.09181447 180.63791049 -0.09358943 C181.63624921 -0.09403152 182.63458794 -0.09447362 183.66317936 -0.09492911 C211.73684266 -0.10723391 239.81050442 -0.11513062 267.88417053 -0.11424255 C268.94213473 -0.1142114 270.00009893 -0.11418024 271.09012265 -0.11414814 C276.45198236 -0.11398193 281.81384207 -0.11378385 287.17570178 -0.11357872 C288.24053097 -0.11353883 289.30536016 -0.11349894 290.40245689 -0.11345784 C292.5558014 -0.11337697 294.7091459 -0.11329337 296.8624904 -0.11320706 C330.35064383 -0.11198208 363.83875674 -0.12698653 397.32689857 -0.15435219 C434.97683574 -0.1851063 472.62674628 -0.20228264 510.2766968 -0.20042574 C514.29529866 -0.20027649 518.31390051 -0.20017907 522.33250237 -0.20011711 C523.32193525 -0.2000938 524.31136814 -0.20007049 525.33078384 -0.20004648 C541.21985737 -0.19998506 557.10889558 -0.21273043 572.99795862 -0.22998164 C588.98204139 -0.24697642 604.96607277 -0.24888198 620.95015959 -0.235763 C630.43226442 -0.22839914 639.9142126 -0.23195463 649.39630067 -0.25164768 C655.74694288 -0.26371665 662.09747258 -0.26098049 668.44810979 -0.24670668 C672.05546105 -0.23900143 675.66251097 -0.23722165 679.26984005 -0.25362138 C732.56536115 -0.47999413 777.90407372 17.11353323 816.31859779 54.13226891 C847.11137547 85.7314041 866.56092876 129.87892639 866.38557339 174.14013767 C866.38877987 175.36285147 866.39198634 176.58556526 866.39528999 177.84533098 C866.40211357 181.20947318 866.40011804 184.57339127 866.39423426 187.93752047 C866.39003544 191.60884853 866.39748195 195.28015703 866.40338677 198.95148021 C866.41212342 205.37632414 866.41346993 211.80113619 866.4098835 218.22598457 C866.40456425 227.78040629 866.4106841 237.33479728 866.41896643 246.88921566 C866.43419154 264.94864375 866.43591301 283.00805779 866.4334434 301.06749096 C866.43160931 315.01579546 866.43337279 328.96409537 866.43766785 342.91239929 C866.43827025 344.91777987 866.43887145 346.92316046 866.43947145 348.92854104 C866.44037872 351.95063086 866.44128739 354.97272069 866.4422038 357.99481051 C866.45063121 386.08634139 866.45497052 414.17787054 866.45079708 442.2694025 C866.4506407 443.3279928 866.45048433 444.38658309 866.45032321 445.47725187 C866.44951746 450.8423514 866.44867169 456.20745092 866.44780991 461.57255044 C866.44763882 462.63803561 866.44746774 463.70352078 866.44729146 464.80129339 C866.44694481 466.95596256 866.44659628 469.11063174 866.44624588 471.26530092 C866.44088948 504.78696667 866.44881767 538.30860611 866.46727943 571.83026695 C866.48800773 609.51128486 866.49872053 647.19228646 866.49470395 684.87331039 C866.49430862 688.89322682 866.49394707 692.91314325 866.49360657 696.93305969 C866.49347047 698.4177147 866.49347047 698.4177147 866.49333162 699.93236273 C866.49216693 714.85679498 866.4988042 729.78121075 866.50941849 744.70563889 C866.52148213 761.68505036 866.52301606 778.66442557 866.51062832 795.64383759 C866.50401107 805.13807614 866.50560455 814.63222794 866.51921683 824.1264595 C866.52748714 830.47880963 866.52473041 836.83109506 866.51324157 843.18343997 C866.5070106 846.79582859 866.50531769 850.40804848 866.5171049 854.02042707 C866.56289818 869.05757766 866.17649667 883.50017747 863.13109779 898.25726891 C862.92771193 899.25469177 862.72432607 900.25211464 862.514777 901.27976245 C862.05247536 903.44039269 861.5252808 905.56347007 860.94359779 907.69476891 C860.736381 908.46224449 860.5291642 909.22972008 860.31566811 910.0204525 C847.02649814 957.12360087 814.51983715 995.95601128 772.09423256 1019.74994469 C747.6779757 1032.99004749 720.06782999 1040.62196102 692.24822903 1040.5117445 C691.02551523 1040.51495098 689.80280144 1040.51815746 688.54303572 1040.5214611 C685.17889352 1040.52828469 681.81497543 1040.52628915 678.45084623 1040.52040538 C674.77951817 1040.51620655 671.10820967 1040.52365307 667.43688649 1040.52955788 C661.01204256 1040.53829454 654.58723051 1040.53964104 648.16238213 1040.53605461 C638.60796041 1040.53073536 629.05356942 1040.53685521 619.49915104 1040.54513754 C601.43972295 1040.56036265 583.3803089 1040.56208412 565.32087574 1040.55961452 C551.37257124 1040.55778043 537.42427133 1040.5595439 523.47596741 1040.56383896 C521.47058683 1040.56444137 519.46520624 1040.56504256 517.45982566 1040.56564256 C514.43773583 1040.56654984 511.41564601 1040.5674585 508.39355618 1040.56837491 C480.30202531 1040.57680232 452.21049616 1040.58114163 424.1189642 1040.57696819 C423.0603739 1040.57681182 422.00178361 1040.57665544 420.91111482 1040.57649433 C415.5460153 1040.57568857 410.18091578 1040.5748428 404.81581626 1040.57398102 C403.75033109 1040.57380994 402.68484591 1040.57363885 401.58707331 1040.57346258 C399.43240414 1040.57311592 397.27773496 1040.57276739 395.12306578 1040.57241699 C361.60140003 1040.56706059 328.07976059 1040.57498878 294.55809975 1040.59345055 C256.87708184 1040.61417884 219.19608024 1040.62489164 181.51505631 1040.62087506 C177.49513988 1040.62047973 173.47522344 1040.62011818 169.45530701 1040.61977768 C167.970652 1040.61964158 167.970652 1040.61964158 166.45600397 1040.61950273 C151.53157172 1040.61833805 136.60715595 1040.62497531 121.68272781 1040.6355896 C104.70331634 1040.64765324 87.72394113 1040.64918717 70.74452911 1040.63679943 C61.25029056 1040.63018218 51.75613876 1040.63177566 42.2619072 1040.64538795 C35.90955707 1040.65365825 29.55727164 1040.65090152 23.20492673 1040.63941268 C19.59253811 1040.63318172 15.98031822 1040.6314888 12.36793963 1040.64327601 C-6.33554216 1040.70020385 -24.27591496 1040.00189716 -42.30640221 1034.56976891 C-43.16854332 1034.3148568 -44.03068443 1034.05994469 -44.91895103 1033.79730797 C-92.36432584 1019.35009425 -130.84532918 987.74292978 -154.49390221 944.13226891 C-167.01234998 920.22417592 -174.22641863 893.41640621 -174.12617111 866.3883667 C-174.12967719 865.16715089 -174.13318326 863.94593508 -174.13679558 862.68771273 C-174.14444313 859.32773938 -174.14328519 855.96798766 -174.13824004 852.60802415 C-174.13494929 848.94113744 -174.14327585 845.27427302 -174.15005839 841.60739362 C-174.16032994 835.190203 -174.16320715 828.77304253 -174.16114616 822.3558445 C-174.15808872 812.81253144 -174.16643665 803.26925159 -174.17689542 793.72594501 C-174.19621419 775.68591439 -174.20186287 757.64589516 -174.20300953 739.60585542 C-174.20392955 725.66951203 -174.20805109 711.73317308 -174.21441078 697.79683113 C-174.21620595 693.78137283 -174.21798558 689.76591452 -174.21976054 685.75045621 C-174.22020263 684.75211749 -174.22064473 683.75377876 -174.22110022 682.72518734 C-174.23340502 654.65152404 -174.24130173 626.57786228 -174.24041367 598.50419617 C-174.24038251 597.44623197 -174.24035135 596.38826777 -174.24031925 595.29824405 C-174.24015304 589.93638434 -174.23995496 584.57452463 -174.23974983 579.21266492 C-174.23970994 578.14783573 -174.23967005 577.08300654 -174.23962895 575.98590981 C-174.23954808 573.8325653 -174.23946448 571.6792208 -174.23937817 569.5258763 C-174.23815319 536.03772286 -174.25315764 502.54960996 -174.2805233 469.06146812 C-174.31127741 431.41153096 -174.32845375 393.76162042 -174.32659686 356.1116699 C-174.3264476 352.09306804 -174.32635018 348.07446619 -174.32628822 344.05586433 C-174.32626491 343.06643145 -174.32624161 342.07699856 -174.32621759 341.05758286 C-174.32615617 325.16850933 -174.33890154 309.27947112 -174.35615275 293.39040807 C-174.37314753 277.4063253 -174.37505309 261.42229393 -174.36193411 245.4382071 C-174.35457025 235.95610228 -174.35812575 226.4741541 -174.37781879 216.99206603 C-174.38988777 210.64142382 -174.3871516 204.29089412 -174.37287779 197.94025691 C-174.36517254 194.33290565 -174.36339276 190.72585572 -174.3797925 187.11852665 C-174.60616524 133.82300555 -157.01263788 88.48429298 -119.99390221 50.06976891 C-88.39649249 19.27867267 -44.2576695 -0.16415254 0 0 Z " fill="#FEC007" transform="translate(253.8689022064209,79.74273109436035)"/>
<path d="M0 0 C1.22121581 -0.00350607 2.44243162 -0.00701215 3.70065397 -0.01062447 C7.06062732 -0.01827202 10.42037904 -0.01711408 13.78034255 -0.01206893 C17.44722926 -0.00877818 21.11409368 -0.01710474 24.78097308 -0.02388728 C31.1981637 -0.03415882 37.61532417 -0.03703603 44.0325222 -0.03497505 C53.57583526 -0.03191761 63.1191151 -0.04026554 72.66242169 -0.0507243 C90.70245231 -0.07004308 108.74247154 -0.07569176 126.78251128 -0.07683842 C140.71885467 -0.07775844 154.65519362 -0.08187998 168.59153557 -0.08823967 C172.60699387 -0.09003484 176.62245218 -0.09181447 180.63791049 -0.09358943 C181.63624921 -0.09403152 182.63458794 -0.09447362 183.66317936 -0.09492911 C211.73684266 -0.10723391 239.81050442 -0.11513062 267.88417053 -0.11424255 C268.94213473 -0.1142114 270.00009893 -0.11418024 271.09012265 -0.11414814 C276.45198236 -0.11398193 281.81384207 -0.11378385 287.17570178 -0.11357872 C288.24053097 -0.11353883 289.30536016 -0.11349894 290.40245689 -0.11345784 C292.5558014 -0.11337697 294.7091459 -0.11329337 296.8624904 -0.11320706 C330.35064383 -0.11198208 363.83875674 -0.12698653 397.32689857 -0.15435219 C434.97683574 -0.1851063 472.62674628 -0.20228264 510.2766968 -0.20042574 C514.29529866 -0.20027649 518.31390051 -0.20017907 522.33250237 -0.20011711 C523.32193525 -0.2000938 524.31136814 -0.20007049 525.33078384 -0.20004648 C541.21985737 -0.19998506 557.10889558 -0.21273043 572.99795862 -0.22998164 C588.98204139 -0.24697642 604.96607277 -0.24888198 620.95015959 -0.235763 C630.43226442 -0.22839914 639.9142126 -0.23195463 649.39630067 -0.25164768 C655.74694288 -0.26371665 662.09747258 -0.26098049 668.44810979 -0.24670668 C672.05546105 -0.23900143 675.66251097 -0.23722165 679.26984005 -0.25362138 C732.56536115 -0.47999413 777.90407372 17.11353323 816.31859779 54.13226891 C847.11137547 85.7314041 866.56092876 129.87892639 866.38557339 174.14013767 C866.38877987 175.36285147 866.39198634 176.58556526 866.39528999 177.84533098 C866.40211357 181.20947318 866.40011804 184.57339127 866.39423426 187.93752047 C866.39003544 191.60884853 866.39748195 195.28015703 866.40338677 198.95148021 C866.41212342 205.37632414 866.41346993 211.80113619 866.4098835 218.22598457 C866.40456425 227.78040629 866.4106841 237.33479728 866.41896643 246.88921566 C866.43419154 264.94864375 866.43591301 283.00805779 866.4334434 301.06749096 C866.43160931 315.01579546 866.43337279 328.96409537 866.43766785 342.91239929 C866.43827025 344.91777987 866.43887145 346.92316046 866.43947145 348.92854104 C866.44037872 351.95063086 866.44128739 354.97272069 866.4422038 357.99481051 C866.45063121 386.08634139 866.45497052 414.17787054 866.45079708 442.2694025 C866.4506407 443.3279928 866.45048433 444.38658309 866.45032321 445.47725187 C866.44951746 450.8423514 866.44867169 456.20745092 866.44780991 461.57255044 C866.44763882 462.63803561 866.44746774 463.70352078 866.44729146 464.80129339 C866.44694481 466.95596256 866.44659628 469.11063174 866.44624588 471.26530092 C866.44088948 504.78696667 866.44881767 538.30860611 866.46727943 571.83026695 C866.48800773 609.51128486 866.49872053 647.19228646 866.49470395 684.87331039 C866.49430862 688.89322682 866.49394707 692.91314325 866.49360657 696.93305969 C866.49347047 698.4177147 866.49347047 698.4177147 866.49333162 699.93236273 C866.49216693 714.85679498 866.4988042 729.78121075 866.50941849 744.70563889 C866.52148213 761.68505036 866.52301606 778.66442557 866.51062832 795.64383759 C866.50401107 805.13807614 866.50560455 814.63222794 866.51921683 824.1264595 C866.52748714 830.47880963 866.52473041 836.83109506 866.51324157 843.18343997 C866.5070106 846.79582859 866.50531769 850.40804848 866.5171049 854.02042707 C866.56289818 869.05757766 866.17649667 883.50017747 863.13109779 898.25726891 C862.92771193 899.25469177 862.72432607 900.25211464 862.514777 901.27976245 C862.05247536 903.44039269 861.5252808 905.56347007 860.94359779 907.69476891 C860.736381 908.46224449 860.5291642 909.22972008 860.31566811 910.0204525 C847.02649814 957.12360087 814.51983715 995.95601128 772.09423256 1019.74994469 C747.6779757 1032.99004749 720.06782999 1040.62196102 692.24822903 1040.5117445 C691.02551523 1040.51495098 689.80280144 1040.51815746 688.54303572 1040.5214611 C685.17889352 1040.52828469 681.81497543 1040.52628915 678.45084623 1040.52040538 C674.77951817 1040.51620655 671.10820967 1040.52365307 667.43688649 1040.52955788 C661.01204256 1040.53829454 654.58723051 1040.53964104 648.16238213 1040.53605461 C638.60796041 1040.53073536 629.05356942 1040.53685521 619.49915104 1040.54513754 C601.43972295 1040.56036265 583.3803089 1040.56208412 565.32087574 1040.55961452 C551.37257124 1040.55778043 537.42427133 1040.5595439 523.47596741 1040.56383896 C521.47058683 1040.56444137 519.46520624 1040.56504256 517.45982566 1040.56564256 C514.43773583 1040.56654984 511.41564601 1040.5674585 508.39355618 1040.56837491 C480.30202531 1040.57680232 452.21049616 1040.58114163 424.1189642 1040.57696819 C423.0603739 1040.57681182 422.00178361 1040.57665544 420.91111482 1040.57649433 C415.5460153 1040.57568857 410.18091578 1040.5748428 404.81581626 1040.57398102 C403.75033109 1040.57380994 402.68484591 1040.57363885 401.58707331 1040.57346258 C399.43240414 1040.57311592 397.27773496 1040.57276739 395.12306578 1040.57241699 C361.60140003 1040.56706059 328.07976059 1040.57498878 294.55809975 1040.59345055 C256.87708184 1040.61417884 219.19608024 1040.62489164 181.51505631 1040.62087506 C177.49513988 1040.62047973 173.47522344 1040.62011818 169.45530701 1040.61977768 C167.970652 1040.61964158 167.970652 1040.61964158 166.45600397 1040.61950273 C151.53157172 1040.61833805 136.60715595 1040.62497531 121.68272781 1040.6355896 C104.70331634 1040.64765324 87.72394113 1040.64918717 70.74452911 1040.63679943 C61.25029056 1040.63018218 51.75613876 1040.63177566 42.2619072 1040.64538795 C35.90955707 1040.65365825 29.55727164 1040.65090152 23.20492673 1040.63941268 C19.59253811 1040.63318172 15.98031822 1040.6314888 12.36793963 1040.64327601 C-6.33554216 1040.70020385 -24.27591496 1040.00189716 -42.30640221 1034.56976891 C-43.16854332 1034.3148568 -44.03068443 1034.05994469 -44.91895103 1033.79730797 C-92.36432584 1019.35009425 -130.84532918 987.74292978 -154.49390221 944.13226891 C-167.01234998 920.22417592 -174.22641863 893.41640621 -174.12617111 866.3883667 C-174.12967719 865.16715089 -174.13318326 863.94593508 -174.13679558 862.68771273 C-174.14444313 859.32773938 -174.14328519 855.96798766 -174.13824004 852.60802415 C-174.13494929 848.94113744 -174.14327585 845.27427302 -174.15005839 841.60739362 C-174.16032994 835.190203 -174.16320715 828.77304253 -174.16114616 822.3558445 C-174.15808872 812.81253144 -174.16643665 803.26925159 -174.17689542 793.72594501 C-174.19621419 775.68591439 -174.20186287 757.64589516 -174.20300953 739.60585542 C-174.20392955 725.66951203 -174.20805109 711.73317308 -174.21441078 697.79683113 C-174.21620595 693.78137283 -174.21798558 689.76591452 -174.21976054 685.75045621 C-174.22020263 684.75211749 -174.22064473 683.75377876 -174.22110022 682.72518734 C-174.23340502 654.65152404 -174.24130173 626.57786228 -174.24041367 598.50419617 C-174.24038251 597.44623197 -174.24035135 596.38826777 -174.24031925 595.29824405 C-174.24015304 589.93638434 -174.23995496 584.57452463 -174.23974983 579.21266492 C-174.23970994 578.14783573 -174.23967005 577.08300654 -174.23962895 575.98590981 C-174.23954808 573.8325653 -174.23946448 571.6792208 -174.23937817 569.5258763 C-174.23815319 536.03772286 -174.25315764 502.54960996 -174.2805233 469.06146812 C-174.31127741 431.41153096 -174.32845375 393.76162042 -174.32659686 356.1116699 C-174.3264476 352.09306804 -174.32635018 348.07446619 -174.32628822 344.05586433 C-174.32626491 343.06643145 -174.32624161 342.07699856 -174.32621759 341.05758286 C-174.32615617 325.16850933 -174.33890154 309.27947112 -174.35615275 293.39040807 C-174.37314753 277.4063253 -174.37505309 261.42229393 -174.36193411 245.4382071 C-174.35457025 235.95610228 -174.35812575 226.4741541 -174.37781879 216.99206603 C-174.38988777 210.64142382 -174.3871516 204.29089412 -174.37287779 197.94025691 C-174.36517254 194.33290565 -174.36339276 190.72585572 -174.3797925 187.11852665 C-174.60616524 133.82300555 -157.01263788 88.48429298 -119.99390221 50.06976891 C-88.39649249 19.27867267 -44.2576695 -0.16415254 0 0 Z M27.94359779 104.75726891 C26.64047646 105.13649498 26.64047646 105.13649498 25.31102943 105.52338219 C10.62445462 110.03603901 -3.59827536 116.98531099 -15.86890221 126.25726891 C-16.73901939 126.90695641 -17.60913658 127.55664391 -18.50562096 128.22601891 C-43.57438576 147.8418699 -61.67382544 173.70158492 -69.99390221 204.56976891 C-70.30585533 205.70027672 -70.61780846 206.83078453 -70.93921471 207.99555016 C-74.17942193 222.00739264 -74.15259337 235.8009198 -74.12286949 250.10017967 C-74.12517624 252.52013141 -74.1283542 254.94008244 -74.13232398 257.36003202 C-74.13891617 262.60442705 -74.13934876 267.84878459 -74.13422966 273.0931797 C-74.12663803 280.89196862 -74.13054596 288.690723 -74.13664627 296.48951171 C-74.14715872 310.42104838 -74.1462726 324.35256666 -74.14048845 338.28410506 C-74.13545183 350.47540718 -74.13414651 362.66670258 -74.13653374 374.85800552 C-74.13668651 375.66755576 -74.13683928 376.477106 -74.13699668 377.31118806 C-74.13761938 380.59763465 -74.13825618 383.88408124 -74.1389162 387.17052782 C-74.14503018 417.98130529 -74.13949356 448.79207108 -74.12872241 479.60284674 C-74.11923075 506.96170011 -74.12008168 534.32053485 -74.12964439 561.67938805 C-74.14035897 592.43632541 -74.14459743 623.19325246 -74.13841987 653.95019144 C-74.13777846 657.23024364 -74.13715277 660.51029585 -74.13653374 663.79034805 C-74.13637558 664.59794673 -74.13621743 665.40554541 -74.13605448 666.23761677 C-74.13378182 678.42037437 -74.13643581 690.60312449 -74.14149284 702.78588104 C-74.14721539 716.64073978 -74.14577305 730.49557731 -74.13493136 744.35043342 C-74.12906713 752.09959508 -74.12866338 759.84871078 -74.1362237 767.59787123 C-74.14124942 773.38889051 -74.13578217 779.17986246 -74.12627456 784.97087436 C-74.12404395 787.30983653 -74.12516919 789.64880487 -74.13002613 791.98776305 C-74.15167677 803.28206845 -74.10932035 814.14997674 -71.86890221 825.25726891 C-71.56389722 827.1394018 -71.26257951 829.02213963 -70.96655846 830.90570641 C-69.93470979 836.43625513 -68.259051 841.61388233 -66.30640221 846.88226891 C-65.95634117 847.83085777 -65.60628014 848.77944664 -65.24561119 849.75678062 C-58.28660596 868.0913494 -48.35591138 883.01231211 -34.86890221 897.25726891 C-33.62173424 898.60111656 -33.62173424 898.60111656 -32.34937096 899.97211266 C-10.93049573 922.33178767 22.11213824 939.0263119 53.33647703 940.35081902 C55.90155873 940.3876547 58.46497502 940.39368446 61.03032017 940.38869667 C62.01552862 940.3907493 63.00073707 940.39280194 64.01580033 940.39491677 C67.32531776 940.40058236 70.63479352 940.39913005 73.94431496 940.3977108 C76.33801082 940.40029472 78.73170625 940.40330795 81.12540108 940.4067142 C87.01970352 940.41393839 92.91399755 940.41648671 98.80830338 940.41704326 C105.86987309 940.41795803 112.93143444 940.42462913 119.99300055 940.43139008 C137.06384757 940.44744409 154.1346937 940.45335353 171.20554691 940.45813883 C179.28747931 940.46047626 187.369411 940.46407916 195.45134285 940.46783421 C223.13549707 940.48067171 250.81965089 940.49138873 278.50380802 940.49483681 C280.24151915 940.49505844 281.97923029 940.49528022 283.71694142 940.49550216 C285.45878683 940.4957228 287.20063224 940.49594328 288.94247764 940.49616361 C292.43674751 940.49660615 295.93101738 940.49705327 299.42528725 940.49750328 C300.72484955 940.49766737 300.72484955 940.49766737 302.05066564 940.49783477 C330.11269641 940.50146153 358.17470129 940.51736616 386.23672215 940.54069364 C415.92830066 940.56533043 445.61986438 940.57901152 475.3114534 940.58020473 C478.57580348 940.58037617 481.84015356 940.58059159 485.10450363 940.58083916 C485.90823671 940.58089493 486.71196978 940.58095069 487.54005841 940.58100815 C500.43638043 940.58215553 513.33267576 940.59315118 526.22898879 940.60772621 C539.21288371 940.62214548 552.19674467 940.62529779 565.1806454 940.61728624 C572.87860485 940.61285476 580.57645413 940.61659005 588.27439894 940.63252474 C594.04713529 940.64353005 599.81977515 940.63855572 605.59250785 940.62775287 C607.90967006 940.62580951 610.22684358 940.62881036 612.54398995 940.63759723 C631.81697861 940.705984 652.13589392 940.389605 670.44359779 933.69476891 C671.4223185 933.35179771 672.4010392 933.00882652 673.40941811 932.65546227 C692.56732055 925.68824523 708.36145445 915.24104703 723.13109779 901.25726891 C724.02699623 900.42582359 724.92289467 899.59437828 725.84594154 898.73773766 C751.13317078 874.51448721 764.97929379 839.9263869 766.24223009 805.20166072 C766.41205668 797.24168469 766.39580094 789.28085995 766.37563018 781.31951878 C766.36867825 777.68187261 766.37351905 774.04423741 766.37678516 770.40658867 C766.38090826 764.04763799 766.37768709 757.68872495 766.36950874 751.32977867 C766.35738207 741.87443249 766.35684237 732.41910977 766.35859272 722.96375723 C766.36121382 707.05430248 766.35456324 691.14486441 766.34255791 675.23541451 C766.33070828 659.49181473 766.32302287 643.7482219 766.32085228 628.00461769 C766.3207148 627.02432148 766.32057732 626.04402528 766.32043568 625.03402313 C766.31975897 620.05523259 766.31915622 615.07644205 766.31858192 610.0976515 C766.31438539 574.86813773 766.30092268 539.63863303 766.2819767 504.40912437 C766.26359664 470.19232799 766.2494349 435.97553409 766.24096107 401.75873375 C766.24069802 400.70330963 766.24043497 399.64788552 766.24016395 398.56047886 C766.23752682 387.96110488 766.2349752 377.36173089 766.23248623 366.76235689 C766.22741432 345.17180375 766.22177182 323.58125077 766.21578407 301.99069786 C766.21550949 300.99808292 766.21523491 300.00546798 766.21495201 298.98277381 C766.19656262 232.74093507 766.16487362 166.49910136 766.13109779 100.25726891 C698.47704752 100.22298507 630.82299621 100.19118676 563.16893959 100.17258263 C561.66665326 100.17216846 561.66665326 100.17216846 560.13401772 100.17174592 C538.36746746 100.16575991 516.60091711 100.16021957 494.83436662 100.15513825 C484.15983949 100.1526436 473.48531239 100.15005049 462.81078529 100.14740562 C461.21743151 100.14701335 461.21743151 100.14701335 459.59188877 100.14661315 C425.17043342 100.13809258 390.74898463 100.12307154 356.32753326 100.10467446 C320.95090066 100.08580124 285.5742717 100.07349615 250.19763416 100.06943893 C245.19933028 100.06886263 240.20102641 100.06821135 235.20272255 100.06751442 C234.21899818 100.06737957 233.2352738 100.06724473 232.2217396 100.0671058 C216.39541499 100.06474365 200.56910164 100.05547099 184.74278162 100.04360484 C168.82659493 100.03181912 152.91041938 100.02733577 136.99422848 100.03026615 C127.54165991 100.03178567 118.08913217 100.0277464 108.63657098 100.01567382 C102.31533471 100.00815316 95.99412505 100.00795626 89.67288692 100.01360528 C86.07558417 100.01661361 82.47835842 100.01654147 78.88106406 100.00750254 C53.1364811 99.90609088 53.1364811 99.90609088 27.94359779 104.75726891 Z " fill="#000000" transform="translate(253.8689022064209,79.74273109436035)"/>
<path d="M0 0 C10.12042696 8.6572327 16.27173052 17.95286039 18.53125 31.09375 C19.6658367 46.32339455 15.05020725 58.77080108 5.23046875 70.34204102 C3.1487111 72.7411634 1.04364139 75.1189754 -1.06591797 77.49365234 C-3.58272864 80.36437583 -5.9293748 83.36575905 -8.296875 86.359375 C-11.05687996 89.83420139 -13.85559154 93.2766597 -16.65625 96.71875 C-17.21175537 97.40179199 -17.76726074 98.08483398 -18.33959961 98.78857422 C-19.4806814 100.19149806 -20.62187716 101.59432922 -21.76318359 102.99707031 C-24.49991479 106.36137714 -27.2342455 109.72763328 -29.96875 113.09375 C-31.05207107 114.4270933 -32.13540442 115.76042662 -33.21875 117.09375 C-33.755 117.75375 -34.29125 118.41375 -34.84375 119.09375 C-88.46875 185.09375 -142.09375 251.09375 -221.71875 349.09375 C-222.25532227 349.75415283 -222.79189453 350.41455566 -223.34472656 351.0949707 C-224.42478016 352.42425495 -225.50485817 353.75351937 -226.58496094 355.08276367 C-229.90684444 359.1709658 -233.2279799 363.25977326 -236.54785156 367.34960938 C-237.65294262 368.70982081 -238.75904647 370.0692101 -239.86621094 371.42773438 C-242.25334661 374.35746701 -244.63251678 377.29117546 -246.96875 380.26171875 C-256.10819068 391.76535502 -266.29565364 401.3202712 -281.46875 403.09375 C-294.42587833 404.09045218 -306.93608759 401.15808786 -317.12134004 392.72554231 C-321.68825565 388.63347135 -325.98267258 384.26086223 -330.30004883 379.90942383 C-331.75886832 378.45738979 -333.21874709 377.00641934 -334.67959595 375.556427 C-338.62275462 371.63595716 -342.55005929 367.69996332 -346.47392869 363.76019883 C-350.59422705 359.62718757 -354.72677279 355.50645078 -358.85734558 351.38371277 C-365.79013429 344.4600049 -372.71235018 337.52585771 -379.62866211 330.58569336 C-387.60996083 322.57718672 -395.60911171 314.58685109 -403.61777288 306.60571462 C-410.509656 299.73656597 -417.39169176 292.8576656 -424.2656824 285.97061175 C-428.36411415 281.86440945 -432.46579072 277.76160153 -436.57639503 273.66758156 C-440.44151021 269.8169748 -444.29406551 265.95421684 -448.13751602 262.08198929 C-449.54487386 260.66805477 -450.95643963 259.25829343 -452.37262154 257.8531971 C-464.22271212 246.08730166 -473.30359281 234.53632605 -473.84375 217.09375 C-473.45785113 204.63243222 -468.81482237 193.3949221 -460.28125 184.28125 C-450.34249881 174.97511614 -438.01627402 170.41817289 -424.453125 170.8046875 C-405.60353191 172.63043343 -394.81059284 184.58792928 -382.06201172 197.38696289 C-381.06569069 198.38356686 -380.0691477 199.37994896 -379.07240295 200.37612915 C-376.39935045 203.04889784 -373.72936567 205.72471125 -371.05997229 208.40113378 C-368.25778962 211.20962006 -365.45272442 214.01522448 -362.64797974 216.82115173 C-357.35161131 222.12061299 -352.05779444 227.42261532 -346.76491749 232.72556347 C-340.73294046 238.76876566 -334.69808182 244.80908677 -328.66299415 250.84918225 C-316.26173146 263.26086289 -303.86404452 275.67610912 -291.46875 288.09375 C-288.44563564 285.09689941 -285.59038863 282.13575579 -282.96875 278.78125 C-279.44141386 274.31417327 -275.87437114 269.88289719 -272.28125 265.46875 C-271.72630859 264.78643311 -271.17136719 264.10411621 -270.59960938 263.40112305 C-269.45797374 261.99745392 -268.3162083 260.59389035 -267.17431641 259.19042969 C-264.43758521 255.82612286 -261.7032545 252.45986672 -258.96875 249.09375 C-257.88542893 247.7604067 -256.80209558 246.42707338 -255.71875 245.09375 C-255.1825 244.43375 -254.64625 243.77375 -254.09375 243.09375 C-173.65625 144.09375 -173.65625 144.09375 -93.21875 45.09375 C-92.4138916 44.10314575 -92.4138916 44.10314575 -91.59277344 43.0925293 C-90.51271984 41.76324505 -89.43264183 40.43398063 -88.35253906 39.10473633 C-85.03065556 35.0165342 -81.7095201 30.92772674 -78.38964844 26.83789062 C-77.28455738 25.47767919 -76.17845353 24.1182899 -75.07128906 22.75976562 C-72.68415339 19.83003299 -70.30498322 16.89632454 -67.96875 13.92578125 C-51.16408739 -7.22592082 -23.87163327 -18.43252695 0 0 Z " fill="#FEDF81" transform="translate(847.46875,432.90625)"/>
<path d="M0 0 C65.67 0 131.34 0 199 0 C199 65.67 199 131.34 199 199 C191.12495459 192.24996107 191.12495459 192.24996107 188.14013004 189.26597118 C187.45738075 188.58582964 186.77463146 187.9056881 186.0711928 187.20493621 C185.34452062 186.4760333 184.61784844 185.7471304 183.86915588 184.99613953 C183.07913286 184.20767649 182.28910983 183.41921345 181.47514671 182.6068576 C178.84116091 179.97684535 176.21074592 177.34329138 173.58032227 174.7097168 C171.68789498 172.8186451 169.7952741 170.92776897 167.90242004 169.03712463 C163.30446751 164.4436077 158.70920896 159.84740498 154.11492611 155.25021806 C150.38313956 151.51617044 146.65037485 147.78310329 142.91691399 144.05072975 C142.38499306 143.51896206 141.85307213 142.98719436 141.30503238 142.43931249 C140.22442136 141.35902119 139.14380809 140.27873214 138.0631926 139.1984453 C127.94396194 129.08206252 117.82779256 118.962623 107.71267527 108.8421276 C99.02641592 100.1513931 90.33752722 91.46329463 81.64672852 82.77709961 C71.55242243 72.68813817 61.45973147 62.59756558 51.36963505 52.50439388 C50.29521735 51.42965762 49.22079756 50.35492347 48.14637566 49.28019142 C47.6177314 48.75139289 47.08908714 48.22259436 46.54442336 47.67777162 C42.81175884 43.94424219 39.07793216 40.21187743 35.34366035 36.47995567 C30.80009609 31.93918804 26.25830161 27.39665927 21.7188077 22.85182228 C19.40108643 20.53146332 17.08228988 18.21219715 14.76187134 15.89453506 C12.25292614 13.38829705 9.74704093 10.87904048 7.24195862 8.36894226 C6.12852777 7.25885749 6.12852777 7.25885749 4.99260336 6.12634677 C4.3281083 5.45924396 3.66361324 4.79214116 2.97898197 4.10482311 C2.39952605 3.52520484 1.82007013 2.94558657 1.22305495 2.34840411 C0 1 0 1 0 0 Z " fill="#FFE082" transform="translate(821,180)"/>
</svg>
